<svg width="1200" height="1200" xmlns="http://www.w3.org/2000/svg">

 <metadata id="metadata62">image/svg+xml</metadata>
 <g>
  <title>background</title>
  <rect fill="none" id="canvas_background" height="402" width="582" y="-1" x="-1"/>
 </g>
 <g>
  <title>Layer 1</title>
  <path fill="#ffffff" d="m0,0l0,1200l1200,0l0,-1200l-1200,0zm863.23244,156.59179c8.71523,-0.18491 17.79139,0.0982 27.17273,0.73242c34.47585,0.0467 70.48313,3.15493 106.2014,6.29883l-3.88195,142.08985l-95.94727,0c-44.98875,-0.99633 -61.23492,16.47305 -62.69532,67.23633l0,111.62109l162.52454,0l-6.44531,152.19727l-156.07923,0l0,423.70612l-158.56921,0l0,-423.70612l-110.08313,0l0,-152.19727l110.08313,0l0,-130.66406c0,-94.20962 39.82898,-154.17399 118.28603,-184.57032c20.14921,-7.92772 43.28765,-12.18913 69.43359,-12.74414z" id="path6796"/>
 </g>
</svg>