<svg width="512" height="512" xmlns="http://www.w3.org/2000/svg">

 <g>
  <title>background</title>
  <rect fill="none" id="canvas_background" height="402" width="582" y="-1" x="-1"/>
 </g>
 <g>
  <title>Layer 1</title>
  <g id="svg_1">
   <g id="svg_2">
    <path fill="#ffffff" id="svg_3" d="m256,0c-140.8,0 -256,115.2 -256,256c0,101.547 60.587,193.707 153.6,234.667l11.093,5.973l-0.853,-13.653c-0.853,-21.333 0.853,-39.253 4.267,-54.613c4.267,-20.48 31.573,-134.827 31.573,-134.827l0.853,-3.413l-1.707,-2.56c0,0 -6.827,-13.653 -6.827,-34.987c0,-30.72 17.067,-55.467 39.253,-55.467c23.04,0 24.747,22.187 24.747,29.013c0,12.8 -5.973,30.72 -11.947,50.347c-3.413,11.093 -7.68,23.04 -10.24,34.987c-3.413,14.507 0,29.013 8.533,40.107c9.387,11.093 23.893,17.92 39.253,17.92c49.493,0 87.04,-59.733 87.04,-139.947c0,-62.293 -44.373,-103.253 -111.787,-103.253c-74.24,0 -130.56,54.613 -130.56,127.147c0,21.333 5.973,39.253 17.92,53.76c2.56,2.56 2.56,3.413 2.56,3.413c0,0.853 0,0.853 -0.853,3.413l0,1.707c-0.853,5.12 -3.413,13.653 -4.267,17.92c0,0.853 0,0.853 0,0.853l-0.851,0c-29.013,-11.947 -45.227,-43.52 -45.227,-87.04c0,-100.693 98.133,-145.92 168.107,-145.92c93.013,0 148.48,67.413 148.48,133.12c0,94.72 -51.2,161.28 -124.587,161.28c-24.747,0 -46.08,-13.653 -52.907,-26.453l-10.24,-19.627l-5.12,21.333c0,0 -14.507,56.32 -17.067,67.413c-4.267,14.507 -11.947,31.573 -23.893,50.347l-5.973,9.387l11.093,3.413c23.894,6.827 47.787,10.24 72.534,10.24c140.8,0 256,-115.2 256,-256s-115.2,-256 -256,-256zm0,494.933c-19.627,0 -38.4,-2.56 -57.173,-6.827c9.387,-16.213 16.213,-31.573 20.48,-43.52c2.56,-7.68 9.387,-34.133 13.653,-52.053c13.653,11.947 35.84,20.48 56.32,20.48c81.92,0 141.653,-75.093 141.653,-178.347c0,-73.387 -62.293,-150.187 -165.547,-150.187c-70.827,0 -114.347,29.013 -138.24,53.76c-29.867,29.867 -46.933,69.973 -46.933,109.227c0,49.493 21.333,87.893 56.32,102.4c5.12,2.56 10.24,2.56 14.507,0c5.12,-2.56 7.68,-6.827 9.387,-11.947c0.853,-4.267 2.56,-13.653 4.267,-18.773l0,-1.707c2.56,-9.387 0.853,-14.507 -5.12,-21.333c-10.24,-11.093 -14.507,-24.747 -14.507,-42.667c0,-71.68 58.88,-110.08 113.493,-110.08c58.88,0 94.72,33.28 94.72,86.187c0,69.973 -29.867,122.88 -69.973,122.88c-10.24,0 -19.627,-4.267 -25.6,-11.947c-5.12,-6.827 -7.68,-16.213 -5.12,-25.6c2.56,-11.093 5.973,-23.04 9.387,-34.133c6.827,-20.48 12.8,-40.107 12.8,-55.467c0,-27.307 -17.067,-46.08 -41.813,-46.08c-31.573,0 -56.32,31.573 -56.32,72.533c0,19.627 5.12,34.133 7.68,40.107c-4.267,17.92 -27.307,114.347 -31.573,132.267c-3.413,12.8 -5.12,28.16 -5.12,45.227c-79.361,-40.96 -130.561,-122.88 -130.561,-213.333c0,-131.413 107.52,-238.933 238.933,-238.933s238.933,107.52 238.933,238.933s-107.52,238.933 -238.933,238.933z"/>
   </g>
  </g>
  <g id="svg_4"/>
  <g id="svg_5"/>
  <g id="svg_6"/>
  <g id="svg_7"/>
  <g id="svg_8"/>
  <g id="svg_9"/>
  <g id="svg_10"/>
  <g id="svg_11"/>
  <g id="svg_12"/>
  <g id="svg_13"/>
  <g id="svg_14"/>
  <g id="svg_15"/>
  <g id="svg_16"/>
  <g id="svg_17"/>
  <g id="svg_18"/>
 </g>
</svg>