<svg width="1000" height="1000" xmlns="http://www.w3.org/2000/svg">
 <metadata>Svg Vector Icons : http://www.onlinewebfonts.com/icon</metadata>

 <g>
  <title>background</title>
  <rect fill="none" id="canvas_background" height="402" width="582" y="-1" x="-1"/>
 </g>
 <g>
  <title>Layer 1</title>
  <g id="svg_1">
   <path fill="#ffffff" id="svg_2" d="m989.4,418c-0.4,-19.7 -1.9,-44.6 -4.6,-74.6c-2.7,-30.1 -6.7,-57 -11.8,-80.7c-5.8,-26.6 -18.5,-49 -38,-67.3c-19.5,-18.2 -42.2,-28.8 -68.1,-31.7c-80.9,-9.1 -203.2,-13.7 -366.9,-13.7s-286,4.6 -366.9,13.7c-25.9,2.9 -48.5,13.5 -67.8,31.7c-19.3,18.2 -31.9,40.6 -37.7,67.3c-5.5,23.7 -9.6,50.6 -12.3,80.7c-2.7,30.1 -4.3,55 -4.6,74.6c-0.4,19.7 -0.6,47 -0.6,82c0,35 0.2,62.3 0.6,82c0.4,19.7 1.9,44.6 4.6,74.6c2.7,30.1 6.7,57 11.8,80.7c5.8,26.6 18.5,49 38,67.3s42.2,28.8 68.1,31.7c80.8,9.1 203.1,13.7 366.8,13.7c163.7,0 286,-4.6 366.9,-13.7c25.9,-2.9 48.5,-13.5 67.8,-31.7c19.3,-18.2 31.9,-40.7 37.7,-67.3c5.5,-23.7 9.6,-50.6 12.3,-80.7c2.7,-30.1 4.3,-55 4.6,-74.6c0.4,-19.7 0.6,-47 0.6,-82c0.1,-35 -0.1,-62.3 -0.5,-82zm-295.8,111.5l-280,175c-5.1,3.6 -11.3,5.5 -18.6,5.5c-5.5,0 -11.1,-1.5 -16.9,-4.4c-12,-6.6 -18,-16.8 -18,-30.6l0,-350c0,-13.8 6,-24.1 18,-30.6c12.4,-6.6 24.2,-6.2 35.5,1.1l280,175c10.9,6.2 16.4,16 16.4,29.5c0,13.5 -5.5,23.3 -16.4,29.5z"/>
  </g>
 </g>
</svg>